<?xml version="1.0" encoding="UTF-8" standalone="no"?>
<svg
   xmlns:osb="http://www.openswatchbook.org/uri/2009/osb"
   xmlns:dc="http://purl.org/dc/elements/1.1/"
   xmlns:cc="http://creativecommons.org/ns#"
   xmlns:rdf="http://www.w3.org/1999/02/22-rdf-syntax-ns#"
   xmlns:svg="http://www.w3.org/2000/svg"
   xmlns="http://www.w3.org/2000/svg"
   xmlns:sodipodi="http://sodipodi.sourceforge.net/DTD/sodipodi-0.dtd"
   xmlns:inkscape="http://www.inkscape.org/namespaces/inkscape"
   width="210mm"
   height="297mm"
   viewBox="0 0 210 297"
   version="1.1"
   id="svg8"
   inkscape:version="1.0.1 (0767f8302a, 2020-10-17)"
   sodipodi:docname="CURVASYLINIAS.svg">
  <defs
     id="defs2">
    <pattern
       inkscape:collect="always"
       patternUnits="userSpaceOnUse"
       width="2"
       height="1"
       patternTransform="translate(0,0) scale(10,10)"
       id="Strips1_1"
       inkscape:stockid="Stripes 1:1">
      <rect
         style="fill:black;stroke:none"
         x="0"
         y="-0.5"
         width="1"
         height="2"
         id="rect1926" />
    </pattern>
    <linearGradient
       id="linearGradient2949"
       osb:paint="solid">
      <stop
         style="stop-color:#00ff28;stop-opacity:1;"
         offset="0"
         id="stop2947" />
    </linearGradient>
  </defs>
  <sodipodi:namedview
     id="base"
     pagecolor="#ffffff"
     bordercolor="#666666"
     borderopacity="1.0"
     inkscape:pageopacity="0.0"
     inkscape:pageshadow="2"
     inkscape:zoom="0.79237087"
     inkscape:cx="136.79187"
     inkscape:cy="593.16441"
     inkscape:document-units="mm"
     inkscape:current-layer="layer1-3"
     inkscape:document-rotation="0"
     showgrid="false"
     inkscape:window-width="1853"
     inkscape:window-height="1025"
     inkscape:window-x="67"
     inkscape:window-y="27"
     inkscape:window-maximized="1" />
  <metadata
     id="metadata5">
    <rdf:RDF>
      <cc:Work
         rdf:about="">
        <dc:format>image/svg+xml</dc:format>
        <dc:type
           rdf:resource="http://purl.org/dc/dcmitype/StillImage" />
        <dc:title></dc:title>
      </cc:Work>
    </rdf:RDF>
  </metadata>
  <g
     inkscape:label="Capa 1"
     inkscape:groupmode="layer"
     id="layer1">
    <g
       inkscape:label="Capa 1"
       id="layer1-3"
       transform="matrix(1.3443482,0,0,1.7011435,-42.908857,-89.819013)">
      <ellipse
         style="fill:#ffff00;fill-opacity:0;stroke-width:0.264583"
         id="path843"
         cx="132.90479"
         cy="120.58647"
         rx="9.9551649"
         ry="0.63591999" />
      <ellipse
         style="fill:#ffff00;fill-opacity:0;stroke-width:0.264583"
         id="path845"
         cx="118.97435"
         cy="126.20898"
         rx="7.0921979"
         ry="0.61374992" />
      <ellipse
         style="fill:#ffff00;fill-opacity:0;stroke-width:0.264583"
         id="path847"
         cx="107.07647"
         cy="121.2712"
         rx="2.7055843"
         ry="28.829359" />
      <path
         style="fill:none;stroke:#000000;stroke-width:0.174959px;stroke-linecap:butt;stroke-linejoin:miter;stroke-opacity:1"
         d="M 32.275831,228.61584 C 95.000196,156.02409 -19.782287,113.16755 -19.782287,113.16755"
         id="path1845" />
      <path
         style="fill:none;stroke:#000000;stroke-width:0.174959px;stroke-linecap:butt;stroke-linejoin:miter;stroke-opacity:1"
         d="m 39.900229,65.394533 c 11.55106,22.075928 6.811612,43.272337 11.55106,22.075928 l 4.577477,-20.325136 0.465063,-2.594443"
         id="path1859" />
      <path
         style="fill:none;stroke:#000000;stroke-width:0.174959px;stroke-linecap:butt;stroke-linejoin:miter;stroke-opacity:1"
         d="M 56.391974,96.022913 C 65.108199,66.845716 64.908636,66.68801 64.908636,66.68801 v -0.127989"
         id="path1861" />
      <path
         style="fill:none;stroke:#000000;stroke-width:0.174959px;stroke-linecap:butt;stroke-linejoin:miter;stroke-opacity:1"
         d="m 85.751746,65.615855 c 0,0 0,0 -12.557339,1.963675 C 66.08737,96.010639 66.08737,96.010639 66.08737,96.010639 l 0.20694,0.188189 c 10.523253,-1.268381 10.523253,-1.268381 10.523253,-1.268381"
         id="path1902" />
      <path
         style="fill:none;stroke:#000000;stroke-width:0.174959px;stroke-linecap:butt;stroke-linejoin:miter;stroke-opacity:1"
         d="M 99.819211,65.697805 C 93.981844,94.873832 93.696662,94.989547 93.696662,94.989547"
         id="path1904" />
      <path
         style="fill:none;stroke:#000000;stroke-width:0.174959px;stroke-linecap:butt;stroke-linejoin:miter;stroke-opacity:1"
         d="M 112.73017,63.256609 C 86.60438,71.934604 86.60438,71.934604 86.60438,71.934604"
         id="path1906" />
      <path
         style="fill:none;stroke:#000000;stroke-width:0.174959px;stroke-linecap:butt;stroke-linejoin:miter;stroke-opacity:1"
         d="m 121.27329,64.565957 c -11.38584,26.443228 -11.38584,26.443228 -11.38584,26.443228 4.17292,2.100093 4.17292,2.100093 4.17292,2.100093 9.45936,2.344746 9.45936,2.344746 9.45936,2.344746 5.72286,-1.720451 5.72286,-1.720451 5.72286,-1.720451 11.25918,-25.517637 11.25918,-25.517637 11.25918,-25.517637 -0.44742,-4.248718 -0.44742,-4.248718 -0.44742,-4.248718 -13.70062,-2.174267 -13.70062,-2.174267 -13.70062,-2.174267 0,0 5.22039,-2.717551 -5.08044,2.773006 z"
         id="path1908" />
      <path
         style="fill:none;stroke:#000000;stroke-width:0.174959px;stroke-linecap:butt;stroke-linejoin:miter;stroke-opacity:1"
         d="m 140.036,94.585614 c 0,0 0,0.710263 8.47155,-29.321074 17.3487,0.0042 17.3487,0.0042 17.3487,0.0042 2.51883,5.836003 2.51883,5.836003 2.51883,5.836003 -4.04436,4.809321 -4.04436,4.809321 -4.04436,4.809321 -16.03579,4.652333 -15.8288,4.652333 -15.8288,4.652333 15.42242,14.411085 15.57135,14.175705 15.57135,14.175705"
         id="path1910" />
      <path
         style="fill:url(#Strips1_1);stroke:#00bc00;stroke-width:2.1590209;stroke-linecap:butt;stroke-linejoin:miter;stroke-opacity:1;stroke-miterlimit:4;stroke-dasharray:17.27216717,2.1590209;fill-opacity:1;stroke-dashoffset:0"
         d="m 61.705984,137.54998 c 65.233866,-10.48102 72.816306,46.34282 92.135116,18.17214 19.31881,-28.17067 26.35236,-31.64772 -0.14515,-28.56072 -26.49752,3.087 -48.35809,2.54412 -57.934453,-7.32869 -9.576359,-9.87281 -47.762562,-11.29651 -47.762562,2.15977"
         id="path1912" />
      <path
         style="fill:#000000;stroke:#ff0000;stroke-width:0.174959px;stroke-linecap:butt;stroke-linejoin:miter;stroke-opacity:1;fill-opacity:1"
         d="m 65.202025,182.22886 c 39.661175,-1.38692 49.526235,18.10897 49.526235,18.10897 l -9.44091,-19.56843 c 0,0 9.44469,-0.29955 7.85077,0.0418 -1.59392,0.34133 -39.58603,-12.43442 -39.58603,-12.43442 z"
         id="path2918" />
      <path
         style="fill:#ff0000;stroke:#000100;stroke-width:0.63811794;stroke-linecap:butt;stroke-linejoin:miter;stroke-opacity:1;fill-opacity:1;stroke-miterlimit:4;stroke-dasharray:none"
         d="m -69.392804,135.61228 c 39.346089,-0.47222 0.355172,55.09473 19.02357,40.0775 18.668398,-15.01723 -10.042062,45.74305 1.817317,37.59425 11.859382,-8.14881 18.702555,26.0697 18.702555,26.0697"
         id="path2968" />
    </g>
  </g>
</svg>
